<svg width="63" height="64" xmlns="http://www.w3.org/2000/svg"><g fill="#FD4227" fill-rule="evenodd"><path d="M53.416 7.82c-4.18 2.443-7.827 5.418-10.374 9.555-1.058 1.72-1.843 3.646-2.538 5.56-.63 1.734-.727 3.59-.196 5.412.386 1.324.99 1.674 2.266 1.243a14.709 14.709 0 0 0 5.201-3.07c1.161-1.052 2.287-2.147 3.44-3.21 3.061-2.823 5.27-6.272 7.04-10.032.35-.744.59-1.557.774-2.363.256-1.114.14-2.218-.45-3.221-.525-.893-1.346-1.16-2.236-.658-.566.32-1.069.761-1.576 1.18-.801.66-.878.652-1.35-.396zm9.441 3.283c-.117.681-.211 1.366-.355 2.042-1.744 8.227-6.02 14.622-13.243 18.843-2.203 1.288-4.615 1.98-7.141 2.252-2.614.282-4.643-.736-6.104-2.92-1.807-2.703-2.062-5.716-1.385-8.801 1.433-6.532 4.902-11.832 9.857-16.125 3.036-2.63 6.467-4.607 10.246-5.964 2.48-.89 4.547-.416 6.284 1.582.18.207.35.429.491.665.522.862.435 1.095-.496 1.445-.197.074-.384.174-.798.366 2.06.73 2.26 2.476 2.644 4.112v2.503zM8.312 61.047c.56.742.109 1.16-.425 1.544-1.607 1.153-3.356 1.695-5.309 1.259C.201 63.32-.75 61.092.657 59.046c.73-1.062 1.705-2.012 2.734-2.773 3.34-2.471 7.102-4.09 10.955-5.475 5.131-1.844 10.449-2.797 15.838-3.33 6.085-.602 12.183-.775 18.29-.449 3.13.168 6.257.415 9.294 1.296.827.239 1.638.58 2.406.977.948.493 1.642 1.244 1.528 2.46-.085.914-1.062 1.87-2.219 2.048a9.8 9.8 0 0 1-2.648.064c-11.886-1.444-23.668-.772-35.352 1.849-4.438.995-8.661 2.597-12.596 4.976-.178.108-.355.221-.575.358"/><path d="M10.762 47.82c.464.618.191 1.01-.29 1.349C9.005 50.2 7.41 50.58 5.69 50.04c-2.162-.678-2.95-2.892-1.582-4.755.717-.975 1.679-1.82 2.67-2.504 2.559-1.77 5.432-2.868 8.344-3.827 5.018-1.653 10.192-2.274 15.432-2.361 7.261-.122 14.491.244 21.599 1.937 1.351.322 2.666.86 3.947 1.424.619.272 1.207.757 1.657 1.285.897 1.056.617 2.35-.554 3.057-.793.479-1.648.5-2.511.355-2.529-.423-5.04-.99-7.58-1.283-9.36-1.083-18.695-1.085-27.946 1.065-2.93.681-5.675 1.859-8.403 3.387M34.88.012c-.841-.23-16.205 2.873-16.906 3.205-.517.245-1.432 1.162-7.41 9.938a76.53 76.53 0 0 1-.747 1.09 7.96 7.96 0 0 1-.184.227c-.604.728-.795 1.262-.334 2.5.012.03 1.307 3.061 2.973 3.06h.011c.716-.005 1.807-.608 3.835-1.874l.974-.6c.88-.541 1.243-.765 2.138-.94 1.645-.32 4.707-.919 5.68.068.363.37.45 1.04.261 1.994-.244 1.226-4.113 7.427-10.19 10.022-2.463 1.053-5.185 1.684-7.663 1.778-.52.019-.867-.09-1.346-.243-.35-.113-.75-.24-1.253-.319a1.449 1.449 0 0 1-.311-.113c-.292-.128-.779-.341-1.307-.07-.513.266-.687.803-.782 1.242-.186.859.425 1.872 1.469 3.228l.145.189c1.13 1.524 3.28 2.177 5.037 2.177.117 0 .232-.003.345-.008.12-.006 12.541-1.263 18.242-9.372 2.918-4.15 3.54-8.355 1.753-11.84-1.153-2.25-3.874-3.516-6.035-3.951-.851-.17-1.542-.129-2.273-.083-.174.01-.353.022-.542.03-.199.009-.694.063-1.132.112-.3.033-.57.065-.66.069-.225.009-.68.073-1.381.18.77-1.145 1.921-2.63 2.395-2.957 1.35-.216 14.118-2.273 14.894-2.504l.282-.08c1.194-.338 1.49-.713 1.665-2.109.16-1.286-.004-3.585-1.643-4.046"/></g></svg>