<svg width="62" height="88" xmlns="http://www.w3.org/2000/svg"><path d="M37.16 9.359c-.018.103-.018.103.068.225l1.367 25.533c2.837 3.275 5.949 6.812 7.83 8.851l-2.822-26.963.018-.104L42.542 6.68c-.049-.328-.329-1.765-1.084-2.325-.189-.14-.67-.438-1.881-.225-3.032.853-2.38 5.023-2.416 5.23zm19.764 13.196c-1.376-.67-2.124-.054-2.404.323l-.019.104-2.992 22.416 6.743-20.688c.073-.414-.055-1.504-1.328-2.155zm-4.878-12.279c-.17-.243-.463-.402-.98-.493l-.518-.091c-1.692-.085-2.544 2.326-2.599 2.636l-.906 4.536 2.048 19.25 3.302-24.176c.019-.103.097-1.157-.347-1.662zM14.061 40.503c.085.121.067.225.049.328l1.273 7.908c.098.658 1.292 5.99 8.214 4.864 1.418-.177 3.347-3.252 4.406-5.626l-4.786-9.168-9.716.634c.255.366.408.713.56 1.06zm5.917 43.303c-.219-.572-3.233-5.266-5.857-7.33-8.762-7.2-8.988-12.576-9.67-15.364l-2.047-6.55c-.067-.226-.134-.451-.097-.658L.88 40.206l.073-.414c.055-.31.749-2.43 3.902-3.367-.87-1.114-1.254-2.57-.98-4.122.73-4.14 4.699-5.467 6.635-5.553l15.7-1.287c1.352-.402 3.89-.274 5.82 2.094.616.749 1.59 1.88 2.735 3.257l-1.117-20.9c-.372-2.734.127-7.982 5.01-9.042 2.337-.548 3.938.054 4.778.736 2.18 1.558 2.515 4.499 2.564 4.827l.207 1.851c1.066-1.2 2.508-2.119 4.53-2.083 2.228.073 3.445 1.035 4.042 1.887 1.59 1.881 1.17 4.262 1.133 4.469l-.87 6.143c.987-.147 2.143-.05 3.52.62a5.817 5.817 0 0 1 3.19 6.112l-.036.207-10.546 31.97a20.278 20.278 0 0 1-.62 3.519L45.5 87.346l-3.52-.62 5.05-26.217.019-.103c2.148-7.945-1.341-11.762-1.53-11.902 0 0-.104-.018-.085-.122-.53-.627-12.72-14.408-16.136-18.64-.871-1.113-2.083-.9-2.204-.815-.122.086-.226.067-.329.05L10.839 30.33c-.104-.018-3.026.213-3.446 2.594-.127.724.11 1.193.28 1.437.871 1.114 3.252 1.533 4.098 1.576l12.413-.8c.658-.097 1.328.341 1.65.932l5.755 10.94a1.82 1.82 0 0 1 .055 1.503c-.097.298-3.08 5.907-5.712 7.643-3.614 2.385-7.236.993-7.912.626-1.808-.639-3.11-1.722-3.878-2.818-1.675-2.003-2.12-4.322-2.186-4.547l-1.189-7.787c-.237-.468-1.12-2.118-3.507-1.899-1.936.086-2.496.84-2.74 1.011l1.537 13.077 1.98 6.325s.177 6.862 8.287 13.52c3.784 2.749 4.932 5.113 6.616 7.872l-2.962 2.271z" fill="#00B290" fill-rule="evenodd"/></svg>